<svg width="35" height="34" viewBox="0 0 70 68" fill="none" xmlns="http://www.w3.org/2000/svg">
<path d="M11.6971 12.1971H66.88L59.9821 42.0879H18.595M59.9821 51.285H20.8943L9.39786 3H2.5" stroke="black" stroke-width="4.59857" stroke-linecap="round" stroke-linejoin="round"/>
<path d="M55.3836 65.0807C57.9233 65.0807 59.9821 63.0219 59.9821 60.4821C59.9821 57.9424 57.9233 55.8836 55.3836 55.8836C52.8439 55.8836 50.785 57.9424 50.785 60.4821C50.785 63.0219 52.8439 65.0807 55.3836 65.0807Z" stroke="black" stroke-width="4.59857" stroke-linecap="round" stroke-linejoin="round"/>
<path d="M25.4929 65.0807C28.0326 65.0807 30.0914 63.0219 30.0914 60.4821C30.0914 57.9424 28.0326 55.8836 25.4929 55.8836C22.9531 55.8836 20.8943 57.9424 20.8943 60.4821C20.8943 63.0219 22.9531 65.0807 25.4929 65.0807Z" stroke="black" stroke-width="4.59857" stroke-linecap="round" stroke-linejoin="round"/>
</svg>
