<svg width="24" height="24" viewBox="0 0 24 24" fill="none" xmlns="http://www.w3.org/2000/svg">
<path fill-rule="evenodd" clip-rule="evenodd" d="M21.795 15.795C19.8966 16.5315 17.825 16.7002 15.8324 16.2804C13.8399 15.8606 12.0124 14.8704 10.5725 13.4305C9.13259 11.9907 8.14246 10.1632 7.72265 8.1706C7.30285 6.17804 7.47149 4.1064 8.20804 2.20798C5.9277 3.09665 4.02923 4.75365 2.8404 6.8929C1.65158 9.03215 1.24702 11.5194 1.69659 13.9251C2.14615 16.3308 3.42162 18.5041 5.30276 20.0696C7.18391 21.6352 9.55266 22.4948 12 22.5C14.1184 22.5005 16.1875 21.8605 17.9356 20.6639C19.6836 19.4673 21.029 17.77 21.795 15.795Z" fill="black"/>
</svg>
