<svg width="18" height="19" viewBox="0 0 18 19" fill="none" xmlns="http://www.w3.org/2000/svg">
<path d="M11.9907 0.929932C10.7229 0.929932 9.54073 1.76195 9.17183 2.93195L0.990723 2.92993C0.438423 2.92993 -0.00927734 3.37793 -0.00927734 3.92993C-0.00927734 4.48193 0.438423 4.92993 0.990723 4.92993L9.17183 4.92896C9.61993 6.15395 10.7229 6.92993 11.9907 6.92993C13.2585 6.92993 14.3728 6.15196 14.8287 4.92096L16.9907 4.92993C17.543 4.92993 17.9907 4.48193 17.9907 3.92993C17.9907 3.37793 17.543 2.92993 16.9907 2.92993H14.8202C14.3387 1.71093 13.2585 0.929932 11.9907 0.929932ZM11.9907 2.92993C12.543 2.92993 12.9907 3.37793 12.9907 3.92993C12.9907 4.48193 12.543 4.92993 11.9907 4.92993C11.4384 4.92993 10.9907 4.48193 10.9907 3.92993C10.9907 3.37793 11.4384 2.92993 11.9907 2.92993ZM5.99072 6.92993C4.67272 6.92993 3.56952 7.74995 3.16672 8.93195C3.02612 8.94095 0.990723 8.92993 0.990723 8.92993C0.438423 8.92993 -0.00927734 9.37793 -0.00927734 9.92993C-0.00927734 10.4819 0.438423 10.9299 0.990723 10.9299C0.990723 10.9299 3.04312 10.9089 3.17102 10.9219C3.57382 12.1039 4.67272 12.9299 5.99072 12.9299C7.25852 12.9299 8.34492 12.1529 8.82012 10.9329L16.9907 10.9299C17.543 10.9299 17.9907 10.4819 17.9907 9.92993C17.9907 9.37793 17.543 8.92993 16.9907 8.92993L8.81492 8.92096C8.37662 7.72796 7.25852 6.92993 5.99072 6.92993ZM5.99072 8.92993C6.54302 8.92993 6.99072 9.37793 6.99072 9.92993C6.99072 10.4819 6.54302 10.9299 5.99072 10.9299C5.43842 10.9299 4.99072 10.4819 4.99072 9.92993C4.99072 9.37793 5.43842 8.92993 5.99072 8.92993ZM11.9907 12.9299C10.7229 12.9299 9.56323 13.7649 9.17113 14.9199L0.990723 14.9299C0.438423 14.9299 -0.00927734 15.3779 -0.00927734 15.9299C-0.00927734 16.4819 0.438423 16.9299 0.990723 16.9299L9.15632 16.9309C9.57123 18.1159 10.7229 18.9299 11.9907 18.9299C13.2585 18.9299 14.3516 18.1369 14.8332 16.9309L16.9907 16.9299C17.543 16.9299 17.9907 16.4819 17.9907 15.9299C17.9907 15.3779 17.543 14.9299 16.9907 14.9299L14.8241 14.924C14.3924 13.741 13.2585 12.9299 11.9907 12.9299ZM11.9907 14.9299C12.543 14.9299 12.9907 15.3779 12.9907 15.9299C12.9907 16.4819 12.543 16.9299 11.9907 16.9299C11.4384 16.9299 10.9907 16.4819 10.9907 15.9299C10.9907 15.3779 11.4384 14.9299 11.9907 14.9299Z" fill="#2A343D"/>
</svg>
