<!-- icon666.com - MILLIONS vector ICONS FREE --><svg id="Layer_1" enable-background="new 0 0 512 512" viewBox="0 0 512 512" xmlns="http://www.w3.org/2000/svg"><path d="m308.271 234.979c16.457-14.512 26.866-35.729 26.866-59.344 0-43.636-35.5-79.136-79.136-79.136s-79.136 35.5-79.136 79.136c0 23.614 10.409 44.831 26.865 59.343-54.936 20.58-93.341 72.208-96.005 132.284-.254 5.736 3.59 10.848 9.171 12.196 44.069 10.645 90.87 16.042 139.104 16.042s95.034-5.397 139.103-16.042c5.581-1.348 9.425-6.46 9.171-12.196-2.665-60.074-41.069-111.701-96.003-132.283zm-52.27-114.479c30.402 0 55.136 24.734 55.136 55.136s-24.733 55.136-55.136 55.136-55.136-24.734-55.136-55.136c.001-30.402 24.734-55.136 55.136-55.136zm-.001 251c-42.697 0-84.177-4.391-123.467-13.06 6.497-52.349 45.521-95.323 97.839-106.274l-.378-1.805c8.152 2.846 16.898 4.412 26.008 4.412 9.109 0 17.855-1.566 26.007-4.411l-.378 1.805c52.316 10.952 91.339 53.926 97.836 106.274-39.291 8.668-80.77 13.059-123.467 13.059zm0-371.5c-141.16 0-256 114.841-256 256s114.84 256 256 256 256-114.841 256-256-114.841-256-256-256zm0 488c-127.925 0-232-104.075-232-232s104.075-232 232-232 232 104.075 232 232-104.075 232-232 232z"></path></svg>